<svg width="41" height="40" viewBox="0 0 41 40" fill="none" xmlns="http://www.w3.org/2000/svg">
<path d="M28.6139 27.3682L29.0882 23.5928L18.6192 17.9588L17.9855 17.8945L17.5093 23.4695L28.6139 27.3682Z" fill="#F86F03"/>
<path d="M20.6665 40C9.62051 40 0.666504 31.046 0.666504 20C0.666504 8.954 9.62051 0 20.6665 0C31.7125 0 40.6665 8.954 40.6665 20C40.6665 31.046 31.7125 40 20.6665 40ZM20.6665 36C24.91 36 28.9796 34.3143 31.9802 31.3137C34.9808 28.3131 36.6665 24.2435 36.6665 20C36.6665 15.7565 34.9808 11.6869 31.9802 8.68629C28.9796 5.68571 24.91 4 20.6665 4C16.423 4 12.3534 5.68571 9.3528 8.68629C6.35221 11.6869 4.6665 15.7565 4.6665 20C4.6665 24.2435 6.35221 28.3131 9.3528 31.3137C12.3534 34.3143 16.423 36 20.6665 36Z" fill="#FFA41B"/>
<path d="M17.5093 23.1578L21.7198 19.4049V9.47363L18.119 10.7778L17.5093 23.1578Z" fill="#5461E1"/>
</svg>
