<svg width="12" height="10" viewBox="0 0 12 10" fill="none" xmlns="http://www.w3.org/2000/svg">
<path d="M10.8 0H1.2C0.54 0 0 0.5625 0 1.25V8.75C0 9.4375 0.54 10 1.2 10H10.8C11.46 10 12 9.4375 12 8.75V1.25C12 0.5625 11.46 0 10.8 0ZM10.56 2.65625L6.636 5.2125C6.246 5.46875 5.754 5.46875 5.364 5.2125L1.44 2.65625C1.37984 2.62107 1.32715 2.57354 1.28513 2.51653C1.24312 2.45953 1.21264 2.39424 1.19555 2.32461C1.17845 2.25498 1.1751 2.18246 1.18569 2.11144C1.19629 2.04042 1.2206 1.97238 1.25717 1.91144C1.29374 1.85049 1.34179 1.79791 1.39844 1.75687C1.45508 1.71583 1.51912 1.68719 1.5867 1.67269C1.65427 1.65818 1.72397 1.6581 1.79157 1.67247C1.85918 1.68683 1.92328 1.71533 1.98 1.75625L6 4.375L10.02 1.75625C10.0767 1.71533 10.1408 1.68683 10.2084 1.67247C10.276 1.6581 10.3457 1.65818 10.4133 1.67269C10.4809 1.68719 10.5449 1.71583 10.6016 1.75687C10.6582 1.79791 10.7063 1.85049 10.7428 1.91144C10.7794 1.97238 10.8037 2.04042 10.8143 2.11144C10.8249 2.18246 10.8215 2.25498 10.8045 2.32461C10.7874 2.39424 10.7569 2.45953 10.7149 2.51653C10.6728 2.57354 10.6202 2.62107 10.56 2.65625Z" fill="#F3F3F3"/>
</svg>
