<svg width="10" height="9" viewBox="0 0 10 9" fill="none" xmlns="http://www.w3.org/2000/svg">
<path d="M9 0.5H1C0.45 0.5 0 0.95 0 1.5V7.5C0 8.05 0.45 8.5 1 8.5H9C9.55 8.5 10 8.05 10 7.5V1.5C10 0.95 9.55 0.5 9 0.5ZM8.8 2.625L5.53 4.67C5.205 4.875 4.795 4.875 4.47 4.67L1.2 2.625C1.14986 2.59686 1.10596 2.55883 1.07094 2.51323C1.03593 2.46762 1.01053 2.41539 0.996288 2.35969C0.982044 2.30398 0.979251 2.24597 0.988078 2.18915C0.996905 2.13234 1.01717 2.07791 1.04764 2.02915C1.07811 1.98039 1.11816 1.93833 1.16536 1.9055C1.21256 1.87267 1.26594 1.84976 1.32225 1.83815C1.37856 1.82654 1.43664 1.82648 1.49298 1.83797C1.54931 1.84946 1.60273 1.87227 1.65 1.905L5 4L8.35 1.905C8.39727 1.87227 8.45069 1.84946 8.50702 1.83797C8.56336 1.82648 8.62144 1.82654 8.67775 1.83815C8.73407 1.84976 8.78744 1.87267 8.83464 1.9055C8.88184 1.93833 8.92189 1.98039 8.95236 2.02915C8.98283 2.07791 9.00309 2.13234 9.01192 2.18915C9.02075 2.24597 9.01796 2.30398 9.00371 2.35969C8.98947 2.41539 8.96407 2.46762 8.92906 2.51323C8.89404 2.55883 8.85014 2.59686 8.8 2.625Z" fill="#5562E2"/>
</svg>
