<svg width="99" height="18" viewBox="0 0 99 18" fill="none" xmlns="http://www.w3.org/2000/svg">
<path d="M0 16.9226V0H10.1778V2.29664H2.49005V7.18003H9.35583V9.42832H2.49005V14.6502H10.4437V16.9226H0Z" fill="#F3F3F3"/>
<path d="M15.8901 16.9226L11.6836 4.81086V4.49659H14.1737L17.6549 14.7952H18.1626L21.523 4.49659H24.0614V4.81086L19.8549 16.9226H15.8901Z" fill="#F3F3F3"/>
<path d="M30.9022 17.2369C27.1792 17.2369 24.6408 14.5051 24.6408 10.6371C24.6408 6.74488 27.3726 4.18231 30.8539 4.18231C34.6252 4.18231 36.8493 7.05916 36.7285 10.347L36.6801 11.5074H27.0342C27.3243 13.7073 28.6781 15.1095 30.9022 15.1095C32.4253 15.1095 33.6582 14.4084 34.3835 13.2722L36.1724 14.4326C35.1812 16.1007 33.3439 17.2369 30.9022 17.2369ZM27.0825 9.47668H34.3835C34.3351 7.68771 32.8846 6.2372 30.8539 6.2372C28.7748 6.2372 27.4693 7.56683 27.0825 9.47668Z" fill="#F3F3F3"/>
<path d="M38.8646 16.9226V4.49659H41.2821V6.7207H41.7656C42.1524 5.39107 43.4095 4.18231 45.3194 4.18231C48.1962 4.18231 49.7193 6.3339 49.7193 8.70307V16.9226H47.3017V9.40415C47.3017 7.68771 46.0204 6.47895 44.4007 6.47895C42.5392 6.47895 41.2821 7.83276 41.2821 9.67008V16.9226H38.8646Z" fill="#F3F3F3"/>
<path d="M57.0175 16.9226C55.1319 16.9226 53.633 15.9073 53.633 13.5623V6.55148H51.4572V4.49659H53.6814V1.69226H56.0505V4.49659H59.7494V6.55148H56.0505V13.4414C56.0505 14.4084 56.5824 14.771 57.3318 14.771H59.5801V16.9226H57.0175Z" fill="#F3F3F3"/>
<path d="M67.2964 17.2369C63.5734 17.2369 61.035 14.5051 61.035 10.6371C61.035 6.74488 63.7668 4.18231 67.248 4.18231C71.0194 4.18231 73.2435 7.05916 73.1226 10.347L73.0743 11.5074H63.4283C63.7184 13.7073 65.0723 15.1095 67.2964 15.1095C68.8194 15.1095 70.0524 14.4084 70.7776 13.2722L72.5666 14.4326C71.5754 16.1007 69.7381 17.2369 67.2964 17.2369ZM63.4767 9.47668H70.7776C70.7293 7.68771 69.2787 6.2372 67.248 6.2372C65.169 6.2372 63.8635 7.56683 63.4767 9.47668Z" fill="#F3F3F3"/>
<path d="M75.2587 16.9226V4.49659H77.6521V7.13168H78.1598C78.5224 5.92292 79.6828 4.27901 82.197 4.27901V6.86576H81.3751C78.8608 6.86576 77.6763 8.65472 77.6763 10.6613V16.9226H75.2587Z" fill="#F3F3F3"/>
<path d="M93.1523 10.8211H96.1003L98.6547 3.82983V3.46289H95.6909L93.1523 10.8211Z" fill="#5562E2"/>
<path d="M92.488 10.8211H89.3706L86.582 3.85012V3.46289H89.7097L92.488 10.8211Z" fill="#5562E2"/>
<path d="M91.1743 15.3066H94.2917V10.8203H91.1641L91.1743 15.3066Z" fill="#5562E2"/>
<path d="M96.1735 18L96.1735 15.3082L89.2852 15.2979L89.2852 18L96.1735 18Z" fill="#5562E2"/>
</svg>
