<svg width="105" height="18" viewBox="0 0 105 18" fill="none" xmlns="http://www.w3.org/2000/svg">
<path d="M0 17.5428V0H10.5095V2.38081H2.5712V7.44317H9.66071V9.77386H2.5712V15.1871H10.784V17.5428H0Z" fill="#F3F3F3"/>
<path d="M16.408 17.5428L12.0644 4.98717V4.66138H14.6356L18.2303 15.3374H18.7545L22.2244 4.66138H24.8455V4.98717L20.5019 17.5428H16.408Z" fill="#F3F3F3"/>
<path d="M31.9093 17.8686C28.0649 17.8686 25.4438 15.0367 25.4438 11.0269C25.4438 6.99207 28.2646 4.33558 31.8593 4.33558C35.7536 4.33558 38.0502 7.31786 37.9254 10.7262L37.8754 11.9291H27.9152C28.2147 14.2097 29.6126 15.6632 31.9093 15.6632C33.4819 15.6632 34.755 14.9365 35.5039 13.7586L37.3512 14.9615C36.3277 16.6907 34.4305 17.8686 31.9093 17.8686ZM27.9651 9.82398H35.5039C35.454 7.96945 33.9562 6.46578 31.8593 6.46578C29.7125 6.46578 28.3645 7.84415 27.9651 9.82398Z" fill="#F3F3F3"/>
<path d="M40.1311 17.5428V4.66138H42.6274V6.96701H43.1266C43.5261 5.58864 44.8241 4.33558 46.7962 4.33558C49.7668 4.33558 51.3395 6.56603 51.3395 9.02202V17.5428H48.8432V9.7488C48.8432 7.96945 47.5201 6.71639 45.8476 6.71639C43.9255 6.71639 42.6274 8.11982 42.6274 10.0245V17.5428H40.1311Z" fill="#F3F3F3"/>
<path d="M58.8756 17.5428C56.9285 17.5428 55.3808 16.4902 55.3808 14.0593V6.79158H53.1341V4.66138H55.4307V1.75428H57.8771V4.66138H61.6964V6.79158H57.8771V13.934C57.8771 14.9365 58.4263 15.3124 59.2001 15.3124H61.5217V17.5428H58.8756Z" fill="#F3F3F3"/>
<path d="M69.4894 17.8686C65.6451 17.8686 63.024 15.0367 63.024 11.0269C63.024 6.99207 65.8448 4.33558 69.4395 4.33558C73.3337 4.33558 75.6303 7.31786 75.5055 10.7262L75.4556 11.9291H65.4953C65.7949 14.2097 67.1928 15.6632 69.4894 15.6632C71.0621 15.6632 72.3352 14.9365 73.0841 13.7586L74.9314 14.9615C73.9079 16.6907 72.0107 17.8686 69.4894 17.8686ZM65.5452 9.82398H73.0841C73.0342 7.96945 71.5364 6.46578 69.4395 6.46578C67.2927 6.46578 65.9446 7.84415 65.5452 9.82398Z" fill="#F3F3F3"/>
<path d="M77.7112 17.5428V4.66138H80.1826V7.39305H80.7068C81.0812 6.13999 82.2795 4.43583 84.8756 4.43583V7.11737H84.0269C81.4307 7.11737 80.2075 8.9719 80.2075 11.052V17.5428H77.7112Z" fill="#F3F3F3"/>
<path d="M92.6941 6.70117L95.1904 14.1902H91.8401L89.3438 6.70117H92.6941Z" fill="#FFA41B"/>
<path d="M101.431 10.5117L98.9346 18.0008H102.285L104.781 10.5117H101.431Z" fill="#F86F03"/>
<path d="M98.9348 0.394531L96.4385 7.88358H99.7888L102.285 0.394531H98.9348Z" fill="#5662DA"/>
</svg>
