<svg width="109" height="18" viewBox="0 0 109 18" fill="none" xmlns="http://www.w3.org/2000/svg">
<path d="M0 17.6718V0H10.6283V2.39832H2.60028V7.4979H9.76999V9.84572H2.60028V15.2987H10.906V17.6718H0Z" fill="white"/>
<path d="M16.5936 17.6718L12.2009 5.02384V4.69565H14.8011L18.4365 15.4502H18.9666L22.4758 4.69565H25.1265V5.02384L20.7338 17.6718H16.5936Z" fill="white"/>
<path d="M32.2702 18C28.3824 18 25.7316 15.1473 25.7316 11.108C25.7316 7.04348 28.5844 4.36746 32.2197 4.36746C36.158 4.36746 38.4806 7.37167 38.3544 10.805L38.3039 12.0168H28.2309C28.5339 14.3142 29.9476 15.7784 32.2702 15.7784C33.8607 15.7784 35.1482 15.0463 35.9055 13.8597L37.7737 15.0715C36.7386 16.8135 34.82 18 32.2702 18ZM28.2814 9.89621H35.9055C35.8551 8.02805 34.3403 6.51332 32.2197 6.51332C30.0486 6.51332 28.6853 7.90182 28.2814 9.89621Z" fill="white"/>
<path d="M40.585 17.6718V4.69565H43.1096V7.01823H43.6145C44.0184 5.62973 45.3312 4.36746 47.3256 4.36746C50.3298 4.36746 51.9202 6.61431 51.9202 9.08836V17.6718H49.3957V9.82048C49.3957 8.02805 48.0577 6.76578 46.3662 6.76578C44.4223 6.76578 43.1096 8.17952 43.1096 10.0982V17.6718H40.585Z" fill="white"/>
<path d="M59.5416 17.6718C57.5725 17.6718 56.0072 16.6115 56.0072 14.1627V6.84152H53.7351V4.69565H56.0577V1.76718H58.5318V4.69565H62.3943V6.84152H58.5318V14.0365C58.5318 15.0463 59.0872 15.425 59.8698 15.425H62.2176V17.6718H59.5416Z" fill="white"/>
<path d="M70.2755 18C66.3877 18 63.7369 15.1473 63.7369 11.108C63.7369 7.04348 66.5896 4.36746 70.225 4.36746C74.1633 4.36746 76.4858 7.37167 76.3596 10.805L76.3091 12.0168H66.2362C66.5391 14.3142 67.9529 15.7784 70.2755 15.7784C71.8659 15.7784 73.1534 15.0463 73.9108 13.8597L75.779 15.0715C74.7439 16.8135 72.8252 18 70.2755 18ZM66.2867 9.89621H73.9108C73.8603 8.02805 72.3456 6.51332 70.225 6.51332C68.0539 6.51332 66.6906 7.90182 66.2867 9.89621Z" fill="white"/>
<path d="M78.5903 17.6718V4.69565H81.0896V7.44741H81.6197C81.9984 6.18513 83.2102 4.46844 85.8357 4.46844V7.16971H84.9774C82.3519 7.16971 81.1148 9.03787 81.1148 11.1332V17.6718H78.5903Z" fill="white"/>
<path d="M94.2617 17.671H97.728L105.157 1.74219H101.709L94.2617 17.671Z" fill="#FFA41B"/>
<path d="M103 12.9982H106.304L108.304 9.03322H105.124L103 12.9982Z" fill="#FFA41B"/>
<path d="M91.6953 8.99819H94.999L96.999 5.03322H93.8194L91.6953 8.99819Z" fill="#FFA41B"/>
</svg>
