<svg width="10" height="10" viewBox="0 0 10 10" fill="none" xmlns="http://www.w3.org/2000/svg">
<path d="M2.9 0H7.1C8.7 0 10 1.3 10 2.9V7.1C10 7.86913 9.69447 8.60675 9.15061 9.15061C8.60675 9.69447 7.86913 10 7.1 10H2.9C1.3 10 0 8.7 0 7.1V2.9C0 2.13087 0.305535 1.39325 0.84939 0.84939C1.39325 0.305535 2.13087 0 2.9 0ZM2.8 1C2.32261 1 1.86477 1.18964 1.52721 1.52721C1.18964 1.86477 1 2.32261 1 2.8V7.2C1 8.195 1.805 9 2.8 9H7.2C7.67739 9 8.13523 8.81036 8.47279 8.47279C8.81036 8.13523 9 7.67739 9 7.2V2.8C9 1.805 8.195 1 7.2 1H2.8ZM7.625 1.75C7.79076 1.75 7.94973 1.81585 8.06694 1.93306C8.18415 2.05027 8.25 2.20924 8.25 2.375C8.25 2.54076 8.18415 2.69973 8.06694 2.81694C7.94973 2.93415 7.79076 3 7.625 3C7.45924 3 7.30027 2.93415 7.18306 2.81694C7.06585 2.69973 7 2.54076 7 2.375C7 2.20924 7.06585 2.05027 7.18306 1.93306C7.30027 1.81585 7.45924 1.75 7.625 1.75ZM5 2.5C5.66304 2.5 6.29893 2.76339 6.76777 3.23223C7.23661 3.70107 7.5 4.33696 7.5 5C7.5 5.66304 7.23661 6.29893 6.76777 6.76777C6.29893 7.23661 5.66304 7.5 5 7.5C4.33696 7.5 3.70107 7.23661 3.23223 6.76777C2.76339 6.29893 2.5 5.66304 2.5 5C2.5 4.33696 2.76339 3.70107 3.23223 3.23223C3.70107 2.76339 4.33696 2.5 5 2.5ZM5 3.5C4.60218 3.5 4.22064 3.65804 3.93934 3.93934C3.65804 4.22064 3.5 4.60218 3.5 5C3.5 5.39782 3.65804 5.77936 3.93934 6.06066C4.22064 6.34196 4.60218 6.5 5 6.5C5.39782 6.5 5.77936 6.34196 6.06066 6.06066C6.34196 5.77936 6.5 5.39782 6.5 5C6.5 4.60218 6.34196 4.22064 6.06066 3.93934C5.77936 3.65804 5.39782 3.5 5 3.5Z" fill="#F3F3F3"/>
</svg>
