<svg width="8" height="12" viewBox="0 0 8 12" fill="none" xmlns="http://www.w3.org/2000/svg">
<path d="M4.05672 0.800781C1.88952 0.800781 0.136719 2.55358 0.136719 4.72078C0.136719 7.66078 4.05672 12.0008 4.05672 12.0008C4.05672 12.0008 7.97672 7.66078 7.97672 4.72078C7.97672 2.55358 6.22392 0.800781 4.05672 0.800781ZM4.05672 6.12078C3.68542 6.12078 3.32932 5.97328 3.06677 5.71073C2.80422 5.44818 2.65672 5.09208 2.65672 4.72078C2.65672 4.34948 2.80422 3.99338 3.06677 3.73083C3.32932 3.46828 3.68542 3.32078 4.05672 3.32078C4.42802 3.32078 4.78412 3.46828 5.04667 3.73083C5.30922 3.99338 5.45672 4.34948 5.45672 4.72078C5.45672 5.09208 5.30922 5.44818 5.04667 5.71073C4.78412 5.97328 4.42802 6.12078 4.05672 6.12078Z" fill="#FFA41B"/>
</svg>
