<svg width="10" height="11" viewBox="0 0 10 11" fill="none" xmlns="http://www.w3.org/2000/svg">
<path d="M9.02015 7.31925L7.6062 7.15781C7.43994 7.13828 7.27142 7.15669 7.1133 7.21165C6.95517 7.2666 6.81156 7.35668 6.69325 7.47511L5.66898 8.49939C4.08869 7.69568 2.80421 6.41121 2.0005 4.83092L3.03035 3.80107C3.26972 3.5617 3.38662 3.2277 3.34765 2.88813L3.18621 1.48531C3.15465 1.21375 3.02433 0.963284 2.82006 0.781592C2.61578 0.599901 2.35182 0.499676 2.07844 0.500001H1.11539C0.486351 0.500001 -0.0369222 1.02327 0.00204493 1.65231C0.297082 6.4063 4.09916 10.2028 8.84758 10.4978C9.47662 10.5368 9.99989 10.0135 9.99989 9.3845V8.42146C10.0055 7.85922 9.58239 7.38605 9.02015 7.31925Z" fill="#5562E2"/>
</svg>
