<svg width="12" height="11" viewBox="0 0 12 11" fill="none" xmlns="http://www.w3.org/2000/svg">
<path d="M10.8242 7.31932L9.12749 7.15788C8.92798 7.13835 8.72575 7.15676 8.536 7.21172C8.34626 7.26668 8.17392 7.35676 8.03195 7.47519L6.80281 8.49948C4.90645 7.69576 3.36508 6.41127 2.40061 4.83096L3.63644 3.80111C3.92368 3.56173 4.06396 3.22773 4.0172 2.88815L3.82348 1.48532C3.78561 1.21376 3.62922 0.963289 3.38408 0.781595C3.13895 0.599902 2.8222 0.499676 2.49414 0.500001H1.33848C0.583624 0.500001 -0.0443069 1.02328 0.00245392 1.65233C0.3565 6.40636 4.91902 10.2029 10.6172 10.498C11.372 10.5369 11.9999 10.0136 11.9999 9.3846V8.42154C12.0066 7.8593 11.4989 7.38612 10.8242 7.31932Z" fill="#F3F3F3"/>
</svg>
