<svg width="22" height="23" viewBox="0 0 22 23" fill="none" xmlns="http://www.w3.org/2000/svg">
<path fill-rule="evenodd" clip-rule="evenodd" d="M15.7266 10.1803H11.6854L8.65934 1.46717V0.964478H12.7195L15.7266 10.1803Z" fill="#FFCF86"/>
<path fill-rule="evenodd" clip-rule="evenodd" d="M5.31104 12.8197H9.35215L12.3783 21.5328V22.0355H8.31806L5.31104 12.8197Z" fill="#FFCF86"/>
<path fill-rule="evenodd" clip-rule="evenodd" d="M9.21608 16.7031L9.21608 12.662L0.502689 9.63581L1.66768e-07 9.63581L7.09591e-08 13.696L9.21608 16.7031Z" fill="#FFCF86"/>
<path fill-rule="evenodd" clip-rule="evenodd" d="M15.7266 10.1803H11.6854L8.65934 1.46717V0.964478H12.7195L15.7266 10.1803Z" fill="#FFCF86"/>
<path fill-rule="evenodd" clip-rule="evenodd" d="M5.31104 12.8197H9.35215L12.3783 21.5328V22.0355H8.31806L5.31104 12.8197Z" fill="#FFCF86"/>
<path fill-rule="evenodd" clip-rule="evenodd" d="M5.31104 10.2096H9.35215L12.3783 1.49646V0.993774H8.31806L5.31104 10.2096Z" fill="#FFA41B"/>
<path fill-rule="evenodd" clip-rule="evenodd" d="M15.7266 12.7904H11.6854L8.65934 21.5035V22.0062H12.7195L15.7266 12.7904Z" fill="#FFA41B"/>
<path fill-rule="evenodd" clip-rule="evenodd" d="M11.8259 6.28784L11.8259 10.329L20.5393 13.3552L21.042 13.3552L21.042 9.29497L11.8259 6.28784Z" fill="#FFCF86"/>
<path fill-rule="evenodd" clip-rule="evenodd" d="M9.24586 6.28784L9.24586 10.329L0.532474 13.3552L0.029785 13.3552L0.0297851 9.29497L9.24586 6.28784Z" fill="#FFA41B"/>
<path fill-rule="evenodd" clip-rule="evenodd" d="M11.8547 16.7031L11.8547 12.662L20.5681 9.63581L21.0708 9.63581L21.0708 13.696L11.8547 16.7031Z" fill="#FFA41B"/>
</svg>
