<svg width="22" height="23" viewBox="0 0 22 23" fill="none" xmlns="http://www.w3.org/2000/svg">
<path fill-rule="evenodd" clip-rule="evenodd" d="M15.7266 10.1804H11.6854L8.65934 1.46729V0.9646H12.7195L15.7266 10.1804Z" fill="#FFA41B"/>
<path fill-rule="evenodd" clip-rule="evenodd" d="M5.31104 12.8199H9.35215L12.3783 21.533V22.0356H8.31806L5.31104 12.8199Z" fill="#FFA41B"/>
<path fill-rule="evenodd" clip-rule="evenodd" d="M9.21608 16.7034L9.21608 12.6623L0.502689 9.63605L1.66768e-07 9.63605L7.09591e-08 13.6962L9.21608 16.7034Z" fill="#FFA41B"/>
<path fill-rule="evenodd" clip-rule="evenodd" d="M15.7266 10.1804H11.6854L8.65934 1.46729V0.9646H12.7195L15.7266 10.1804Z" fill="#FFA41B"/>
<path fill-rule="evenodd" clip-rule="evenodd" d="M5.31104 12.8199H9.35215L12.3783 21.533V22.0356H8.31806L5.31104 12.8199Z" fill="#FFA41B"/>
<path fill-rule="evenodd" clip-rule="evenodd" d="M5.31104 10.2097H9.35215L12.3783 1.49659V0.993896H8.31806L5.31104 10.2097Z" fill="#F86F03"/>
<path fill-rule="evenodd" clip-rule="evenodd" d="M15.7266 12.7906H11.6854L8.65934 21.5037V22.0063H12.7195L15.7266 12.7906Z" fill="#F86F03"/>
<path fill-rule="evenodd" clip-rule="evenodd" d="M11.8259 6.28809L11.8259 10.3292L20.5393 13.3554L21.042 13.3554L21.042 9.29521L11.8259 6.28809Z" fill="#FFA41B"/>
<path fill-rule="evenodd" clip-rule="evenodd" d="M9.24586 6.28809L9.24586 10.3292L0.532474 13.3554L0.029785 13.3554L0.0297851 9.29521L9.24586 6.28809Z" fill="#F86F03"/>
<path fill-rule="evenodd" clip-rule="evenodd" d="M11.8547 16.7034L11.8547 12.6623L20.5681 9.63605L21.0708 9.63605L21.0708 13.6962L11.8547 16.7034Z" fill="#F86F03"/>
</svg>
